<?xml version="1.0" encoding="utf-8"?>
<!-- Generator: Adobe Illustrator 16.0.4, SVG Export Plug-In . SVG Version: 6.00 Build 0)  -->
<!DOCTYPE svg PUBLIC "-//W3C//DTD SVG 1.1//EN" "http://www.w3.org/Graphics/SVG/1.1/DTD/svg11.dtd">
<svg version="1.1" id="Layer_1" xmlns="http://www.w3.org/2000/svg" xmlns:xlink="http://www.w3.org/1999/xlink" x="0px" y="0px"
	 width="542.984px" height="138.172px" viewBox="0 0 542.984 138.172" enable-background="new 0 0 542.984 138.172"
	 xml:space="preserve">
<g>
	<path d="M430.984,53.812c2.092,0.788,4.481-0.184,5.747-3.549c1.317-3.502,0.183-6.006-1.865-6.774
		c-2.047-0.771-4.55,0.366-5.867,3.867C427.734,50.721,428.894,53.026,430.984,53.812z"/>
	<path d="M239.216,35.116c0.889,0.707,1.885,0.809,2.896,0.662c1.299-0.188,2.438-0.797,3.021-2.207
		c0.369-0.84,0.459-1.933,0.332-2.797l-7.938,1.147C237.726,32.971,238.162,34.286,239.216,35.116z"/>
	<path d="M317.83,23.648l1.507,0.058l0.169-4.469l-1.507-0.057c-1.747-0.066-2.568,1.068-2.608,2.139
		C315.351,22.387,316.081,23.581,317.83,23.648z"/>
	<path d="M77.992,99.115c-0.059-0.916-0.481-1.927-0.991-2.638l-6.52,4.666c0.66,0.841,1.649,1.807,2.968,2.06
		c1.111,0.22,2.044-0.148,2.873-0.742C77.389,101.696,78.123,100.633,77.992,99.115z"/>
	<path d="M481.946,71.463c-1.685,3.012-1.599,5.844,0.565,7.055c2.162,1.207,4.621-0.2,6.305-3.211
		c1.686-3.012,1.598-5.843-0.564-7.052C486.089,67.042,483.631,68.452,481.946,71.463z"/>
	<path d="M53.606,115.857l-5.393,4.532l3.109,3.702c1.873-1.426,3.76-2.831,5.658-4.218L53.606,115.857z"/>
	<path d="M505.323,92.124l5.62,3.745l8.683-13.031c-1.803-1.355-3.617-2.689-5.439-4.015L505.323,92.124z"/>
	<path d="M375.322,39.888c1.285,0.271,2.563,0.094,3.594-1.03c0.637-0.66,1.095-1.658,1.273-2.516l-7.846-1.648
		c-0.172,1.057-0.215,2.438,0.489,3.579C373.425,39.241,374.322,39.679,375.322,39.888z"/>
	<path d="M456.093,58.586c-1.682,3.613-0.763,6.133,1.265,7.072c2.027,0.941,4.543,0.022,6.223-3.59
		c1.681-3.613,0.762-6.131-1.266-7.07C460.288,54.056,457.772,54.974,456.093,58.586z"/>
	<path d="M186.967,38.933l1.439-0.446l-1.327-4.269l-1.438,0.448c-1.67,0.517-2.066,1.861-1.75,2.883S185.297,39.454,186.967,38.933
		z"/>
	<path d="M5.737,129.033c8.728,10.608,24.402,12.134,35.012,3.407c1.306-1.072,2.627-2.119,3.945-3.173l-13.795-16.414l6.434-5.407
		l6.254,7.438l5.395-4.532l-6.252-7.439l6.436-5.41l14.684,17.472c2.465-1.715,4.945-3.403,7.45-5.056
		c-1.553-0.194-3.089-0.773-4.629-1.747c-2.205-1.409-4.606-3.935-5.751-5.864l13.397-9.585c-2.976-4.325-6.019-2.146-6.729-1.638
		c-0.712,0.509-1.326,1.068-1.614,1.752c-0.236,0.589-0.181,1.085-0.062,1.418l-6.797,4.863c-1.59-3.227-0.926-5.97-0.39-7.309
		c1.009-2.515,3.396-4.521,5.174-5.795c2.965-2.12,6.296-3.727,10.194-2.872c3.762,0.833,6.221,3.436,7.89,5.768
		c2.375,3.317,3.569,6.826,2.964,10.485c-0.14,0.841-0.363,1.617-0.65,2.346c2.308-1.385,4.627-2.744,6.964-4.076l-3.364-5.485
		l6.379-3.91l-9.598-15.656l7.166-4.394l9.599,15.659l6.379-3.911l3.758,6.131l-7.556,4.631
		c47.99-24.875,101.301-38.933,155.794-40.697l-0.511-7.201c2.297-1.281,3.894-1.444,6.258-1.758c2.656-0.334,4.103-0.535,5.4-0.771
		c4.563-0.907,5.156-3.531,5.124-5.379l-0.007-0.778c-1.225,1.255-3.311,2.767-7.087,3.083c-7.364,0.568-11.724-4.579-12.265-10.874
		c-0.649-7.796,4.25-13.597,11.812-14.131c5.478-0.388,9.263,2.17,11.167,5.007c1.799,2.697,2.443,6.307,2.721,10.231
		c0.46,5.812,0.403,12.586-3.798,16.536c-2.74,2.582-6.636,3.293-9.188,3.721l-2.794,0.441c-2.53,0.418-4.574,0.951-6.777,1.871
		c3.87-0.123,7.743-0.207,11.623-0.207c84.029,0,165.977,29.339,230.744,82.617c10.61,8.728,26.285,7.201,35.013-3.407
		c8.727-10.61,7.201-26.285-3.409-35.013c-2.491-2.049-5.007-4.059-7.539-6.045l-12.273,18.416l-19.607-13.064l12.913-19.377
		c-1.949-1.357-3.912-2.691-5.883-4.016l-11.539,20.629l-6.912-3.866l0.973-1.738c-1.519,0.822-3.838,0.692-6.384-0.731
		c-2.756-1.543-4.492-3.516-5.265-6.119c-0.958-3.264-0.041-7.094,2.07-10.869c2.112-3.772,4.787-6.564,8.069-7.457
		c0.858-0.231,1.708-0.336,2.559-0.334c-5.901-3.569-11.89-6.983-17.959-10.25c5.666,3.526,7.398,9.979,4.358,16.519
		c-3.32,7.137-10.22,9.875-17.181,6.639c-6.96-3.236-9.312-10.275-5.994-17.414c3.276-7.048,10.049-9.797,16.921-6.748
		c-16.716-8.881-34.038-16.627-51.913-23.154C367.898,8.475,320.201,0.075,271.494,0.075c-48.708,0-96.403,8.399-141.764,24.965
		C85.904,41.046,45.333,64.255,9.145,94.021C-1.463,102.748-2.989,118.423,5.737,129.033z M437.467,36.577
		c5.139,1.932,7.512,5.834,8.062,9.209c0.508,3.201-0.41,6.748-1.795,10.434c-2.006,5.477-4.884,11.607-10.352,13.446
		c-3.566,1.202-7.404,0.228-9.9-0.453l-2.723-0.765c-2.497-0.68-4.588-1.051-6.999-1.127l2.548-6.776
		c2.621-0.208,4.14,0.311,6.419,1.014c2.552,0.804,3.952,1.226,5.23,1.552c4.526,1.078,6.158-1.059,6.9-2.753l0.319-0.711
		c-1.639,0.63-4.164,1.136-7.729-0.153c-6.93-2.555-8.745-9.051-6.611-14.998C423.498,37.137,430.37,33.907,437.467,36.577z
		 M397.421,24.229l8.069,2.354l-5.103,17.494l4.944,1.442l1.579-5.413c0.641-2.191,1.771-5.203,2.94-6.785
		c1.083-1.455,2.73-2.596,4.67-2.99c1.877-0.362,3.844,0.009,5.29,0.43l2.706,0.79l-2.055,7.043l-0.84-0.243
		c-2.473-0.722-3.568,0.781-4.061,1.6c-0.316,0.564-0.728,1.457-1.231,3.185l-3.402,11.661l-20.667-6.026L397.421,24.229z
		 M365.021,28.435l16.119,3.392c1.176-5.113-2.485-5.886-3.342-6.064c-0.856-0.184-1.685-0.257-2.384-0.005
		c-0.593,0.222-0.92,0.599-1.086,0.913l-8.179-1.721c1.302-3.353,3.775-4.721,5.123-5.229c2.536-0.957,5.628-0.554,7.77-0.104
		c3.565,0.752,7.003,2.121,9.008,5.57c1.93,3.336,1.675,6.906,1.084,9.713c-0.84,3.995-2.617,7.246-5.727,9.272
		c-2.993,1.952-6.168,2.18-9.307,1.52c-5.563-1.171-8.622-4.099-9.515-9.055C364.136,34.058,364.37,30.583,365.021,28.435z
		 M333.627,13.077l8.34,1.057l-1.689,13.352l4.324-5.523l4.049,0.511l2.812,6.431l1.688-13.354l8.34,1.055l-3.209,25.358
		l-8.482-1.075l-4.331-9.511l-6.564,8.135l-8.482-1.073L333.627,13.077z M306.769,20.409c0.369-4.604,4.017-8.504,10.622-8.254
		l10.246,0.389l-0.965,25.541l-8.401-0.317l0.277-7.332l-1.555-0.062C309.951,30.11,306.378,25.596,306.769,20.409z M297.189,11.39
		l7.916,0.3l-0.967,25.542l-7.914-0.3L297.189,11.39z M231.37,18.227c2.052-1.77,5.098-2.454,7.26-2.768
		c3.607-0.522,7.307-0.42,10.375,2.133c2.961,2.469,3.95,5.908,4.36,8.748c0.585,4.039,0.035,7.704-2.188,10.676
		c-2.139,2.864-5.043,4.169-8.217,4.628c-5.629,0.815-9.509-0.884-12.053-5.229c-1.31-2.266-2.285-5.61-2.414-7.853l16.307-2.358
		c-0.654-5.209-4.358-4.674-5.225-4.547c-0.865,0.125-1.67,0.34-2.238,0.813c-0.48,0.415-0.658,0.882-0.706,1.231l-8.273,1.196
		C228.427,21.306,230.279,19.171,231.37,18.227z M206.546,21.969l3.937,17.794l5.03-1.113l-1.219-5.503
		c-0.494-2.229-0.948-5.415-0.684-7.365c0.25-1.795,1.146-3.586,2.656-4.867c1.472-1.221,3.375-1.842,4.846-2.168l2.752-0.606
		l1.585,7.165l-0.854,0.188c-2.515,0.558-2.755,2.402-2.791,3.355c-0.008,0.648,0.062,1.63,0.45,3.383l2.623,11.864l-21.019,4.649
		l-5.521-24.959L206.546,21.969z M182.729,28.243l9.792-3.041l7.582,24.406l-8.027,2.496l-2.177-7.008l-1.486,0.461
		c-6.728,2.091-11.598-0.977-12.954-5.999C174.273,35.093,176.419,30.204,182.729,28.243z M170.989,31.89l7.583,24.408l-7.563,2.351
		l-7.584-24.41L170.989,31.89z M142.866,42.454l6.479,4.348l1.534-7.596l9.275-3.76l-4.015,15.573l13.345,8.222l-9.366,3.797
		l-6.019-4.113l-1.456,7.145l-9.097,3.685l3.647-15.058l-13.788-8.406L142.866,42.454z M110.151,57.382
		c6.534-3.441,12.851-0.729,16.543,6.276c3.689,7.006,2.355,13.75-4.179,17.192c-5.07,2.675-9.807,2.86-14.074-3.678l7.308-3.849
		c1.094,1.345,1.99,1.587,3.28,0.906c1.504-0.792,1.96-2.844,0.014-6.541c-2.174-4.128-4.18-4.389-5.427-3.732
		c-1.504,0.793-1.363,2.313-0.584,4.207l-7.437,3.919C102.335,64.959,104.563,60.327,110.151,57.382z"/>
	<path d="M269.062,19.59c-2.183,0.152-3.983,2.229-3.722,5.96c0.254,3.585,2.271,5.196,4.498,5.041
		c2.229-0.157,3.997-2.036,3.742-5.622C273.319,21.235,271.243,19.434,269.062,19.59z"/>
</g>
</svg>
