<?xml version="1.0" encoding="utf-8"?>
<!-- Generator: Adobe Illustrator 16.0.4, SVG Export Plug-In . SVG Version: 6.00 Build 0)  -->
<!DOCTYPE svg PUBLIC "-//W3C//DTD SVG 1.1//EN" "http://www.w3.org/Graphics/SVG/1.1/DTD/svg11.dtd">
<svg version="1.1" id="Layer_1" xmlns="http://www.w3.org/2000/svg" xmlns:xlink="http://www.w3.org/1999/xlink" x="0px" y="0px"
	 width="100px" height="77.05px" viewBox="0 0 100 77.05" enable-background="new 0 0 100 77.05" xml:space="preserve">
<path fill="#456FEE" d="M9.017,32.788v4.918c0,0,38.51,22.131,40.982,22.131c2.476,0,40.983-22.131,40.983-22.131v-4.918
	c0,0-38.547,22.131-40.983,22.131C47.447,54.919,9.017,32.788,9.017,32.788z"/>
<path fill="#456FEE" d="M96.721,23.771C95.91,23.191,56.033,0,49.999,0c-6.03,0-44.98,22.611-46.721,23.771
	C1.539,24.93,0,27.103,0,28.689v45.083c0,2.049,1.229,3.278,3.278,3.278h93.443c2.049,0,3.278-1.229,3.278-3.278V28.689
	C100,27.335,97.88,24.351,96.721,23.771z M95.082,70.492c0,1.024-0.613,1.639-1.641,1.639H6.558c-1.024,0-1.64-0.613-1.64-1.639
	V29.508c0-1.024,2.459-2.459,2.459-2.459s37.867-22.13,42.622-22.13c4.756,0,42.883,22.366,42.883,22.366s2.199,1.199,2.199,2.224
	V70.492z"/>
</svg>
