<?xml version="1.0" encoding="utf-8"?>
<!-- Generator: Adobe Illustrator 16.0.4, SVG Export Plug-In . SVG Version: 6.00 Build 0)  -->
<!DOCTYPE svg PUBLIC "-//W3C//DTD SVG 1.1//EN" "http://www.w3.org/Graphics/SVG/1.1/DTD/svg11.dtd">
<svg version="1.1" id="Layer_1" xmlns="http://www.w3.org/2000/svg" xmlns:xlink="http://www.w3.org/1999/xlink" x="0px" y="0px"
	 width="542.984px" height="138.172px" viewBox="0 0 542.984 138.172" enable-background="new 0 0 542.984 138.172"
	 xml:space="preserve">
<g>
	<path d="M112.005,84.368c-2.092-0.788-4.481,0.184-5.747,3.549c-1.317,3.502-0.183,6.006,1.865,6.775
		c2.047,0.771,4.55-0.367,5.867-3.868C115.255,87.459,114.096,85.154,112.005,84.368z"/>
	<path d="M303.774,103.064c-0.889-0.706-1.885-0.808-2.896-0.661c-1.299,0.188-2.438,0.796-3.021,2.207
		c-0.369,0.839-0.458,1.932-0.332,2.796l7.938-1.147C305.263,105.209,304.827,103.895,303.774,103.064z"/>
	<path d="M225.159,114.532l-1.506-0.057l-0.169,4.469L224.99,119c1.748,0.067,2.569-1.069,2.609-2.139
		C227.639,115.793,226.908,114.6,225.159,114.532z"/>
	<path d="M464.997,39.065c0.059,0.916,0.482,1.926,0.991,2.637l6.52-4.666c-0.66-0.84-1.65-1.806-2.968-2.059
		c-1.111-0.22-2.044,0.148-2.873,0.742C465.601,36.484,464.866,37.547,464.997,39.065z"/>
	<path d="M61.043,66.718c1.685-3.013,1.599-5.845-0.565-7.055c-2.162-1.208-4.621,0.2-6.305,3.211
		c-1.685,3.011-1.598,5.843,0.565,7.052C56.901,71.138,59.359,69.729,61.043,66.718z"/>
	<path d="M489.383,22.322l5.392-4.532l-3.109-3.702c-1.873,1.426-3.76,2.831-5.658,4.218L489.383,22.322z"/>
	<path d="M37.666,46.056l-5.62-3.745l-8.682,13.031c1.802,1.356,3.617,2.69,5.439,4.015L37.666,46.056z"/>
	<path d="M167.667,98.292c-1.285-0.271-2.563-0.094-3.594,1.03c-0.636,0.661-1.094,1.659-1.273,2.516l7.846,1.649
		c0.172-1.057,0.215-2.438-0.49-3.58C169.565,98.94,168.667,98.501,167.667,98.292z"/>
	<path d="M86.897,79.594c1.681-3.613,0.762-6.133-1.265-7.072c-2.027-0.942-4.543-0.023-6.223,3.589
		c-1.68,3.613-0.761,6.131,1.266,7.071C82.701,84.124,85.217,83.206,86.897,79.594z"/>
	<path d="M356.022,99.247l-1.439,0.446l1.327,4.269l1.438-0.448c1.67-0.517,2.066-1.861,1.75-2.883
		C358.781,99.609,357.692,98.726,356.022,99.247z"/>
	<path d="M537.252,9.147C528.524-1.462,512.85-2.987,502.24,5.739c-1.305,1.073-2.627,2.12-3.945,3.173l13.795,16.414l-6.434,5.408
		l-6.254-7.439l-5.394,4.532l6.252,7.44l-6.436,5.41l-14.683-17.472c-2.465,1.715-4.946,3.404-7.451,5.056
		c1.553,0.194,3.089,0.773,4.629,1.747c2.205,1.409,4.607,3.935,5.751,5.864l-13.397,9.585c2.975,4.325,6.018,2.147,6.729,1.638
		c0.712-0.509,1.327-1.068,1.615-1.752c0.236-0.589,0.18-1.085,0.061-1.418l6.797-4.863c1.59,3.226,0.926,5.969,0.39,7.308
		c-1.009,2.515-3.396,4.521-5.174,5.795c-2.965,2.12-6.296,3.727-10.194,2.872c-3.762-0.833-6.221-3.435-7.89-5.767
		c-2.375-3.318-3.569-6.826-2.964-10.486c0.14-0.84,0.363-1.617,0.65-2.345c-2.307,1.384-4.627,2.744-6.963,4.076L455.094,46
		l-6.379,3.91l9.598,15.657l-7.167,4.394l-9.598-15.659l-6.379,3.911l-3.758-6.131l7.556-4.631
		c-47.99,24.876-101.301,38.934-155.794,40.697l0.51,7.202c-2.296,1.281-3.893,1.444-6.257,1.757
		c-2.656,0.334-4.103,0.535-5.401,0.772c-4.563,0.907-5.156,3.531-5.123,5.379l0.006,0.778c1.225-1.255,3.311-2.766,7.087-3.083
		c7.364-0.568,11.724,4.579,12.265,10.874c0.649,7.796-4.251,13.597-11.812,14.131c-5.477,0.388-9.262-2.17-11.167-5.007
		c-1.798-2.697-2.443-6.307-2.72-10.231c-0.46-5.812-0.404-12.586,3.798-16.537c2.74-2.581,6.635-3.293,9.187-3.72l2.794-0.441
		c2.53-0.418,4.574-0.951,6.777-1.872c-3.87,0.124-7.743,0.208-11.623,0.208c-84.029,0-165.976-29.34-230.744-82.618
		C30.14-2.987,14.465-1.461,5.738,9.148c-8.727,10.61-7.202,26.285,3.409,35.012c2.491,2.049,5.007,4.06,7.539,6.046L28.959,31.79
		l19.608,13.064L35.654,64.231c1.949,1.358,3.912,2.692,5.882,4.015l11.539-20.629l6.913,3.867l-0.973,1.738
		c1.518-0.822,3.838-0.692,6.384,0.731c2.756,1.543,4.492,3.516,5.264,6.119c0.958,3.264,0.041,7.094-2.07,10.87
		c-2.112,3.772-4.787,6.564-8.069,7.457c-0.859,0.231-1.708,0.336-2.559,0.334c5.901,3.569,11.89,6.983,17.959,10.249
		c-5.666-3.526-7.398-9.978-4.358-16.518c3.32-7.138,10.219-9.875,17.18-6.64c6.96,3.237,9.313,10.276,5.994,17.414
		c-3.276,7.048-10.048,9.797-16.92,6.748c16.715,8.881,34.038,16.627,51.913,23.155c45.358,16.564,93.055,24.964,141.762,24.964
		c48.708,0,96.403-8.399,141.764-24.964c43.826-16.007,84.397-39.216,120.586-68.982C544.452,35.432,545.979,19.757,537.252,9.147z
		 M105.523,101.604c-5.139-1.932-7.512-5.835-8.062-9.209c-0.508-3.201,0.41-6.748,1.795-10.434
		c2.006-5.476,4.884-11.607,10.352-13.446c3.566-1.202,7.404-0.227,9.9,0.453l2.723,0.765c2.497,0.679,4.588,1.05,6.999,1.127
		l-2.548,6.776c-2.621,0.208-4.14-0.311-6.419-1.014c-2.552-0.803-3.952-1.226-5.231-1.551c-4.526-1.079-6.158,1.058-6.9,2.752
		l-0.319,0.711c1.638-0.63,4.164-1.135,7.729,0.154c6.93,2.554,8.745,9.05,6.612,14.997
		C119.491,101.043,112.619,104.273,105.523,101.604z M145.569,113.951l-8.07-2.354l5.103-17.494l-4.945-1.442l-1.579,5.413
		c-0.64,2.191-1.771,5.203-2.94,6.785c-1.083,1.455-2.731,2.596-4.67,2.991c-1.877,0.362-3.844-0.009-5.29-0.43l-2.706-0.79
		l2.055-7.043l0.839,0.243c2.473,0.722,3.569-0.781,4.061-1.599c0.316-0.565,0.728-1.458,1.231-3.185l3.403-11.661l20.667,6.026
		L145.569,113.951z M177.968,109.745l-16.119-3.391c-1.176,5.113,2.485,5.885,3.342,6.064c0.856,0.183,1.684,0.257,2.383,0.005
		c0.593-0.222,0.92-0.599,1.086-0.913l8.179,1.721c-1.302,3.352-3.775,4.72-5.123,5.229c-2.536,0.957-5.628,0.554-7.769,0.104
		c-3.566-0.751-7.003-2.121-9.008-5.57c-1.93-3.336-1.675-6.906-1.084-9.713c0.84-3.995,2.617-7.246,5.726-9.272
		c2.993-1.953,6.168-2.18,9.307-1.52c5.563,1.171,8.622,4.099,9.515,9.055C178.854,104.122,178.619,107.598,177.968,109.745z
		 M209.363,125.104l-8.34-1.057l1.689-13.352l-4.324,5.524l-4.049-0.511l-2.812-6.43l-1.688,13.354l-8.34-1.055l3.209-25.358
		l8.483,1.075l4.331,9.511l6.564-8.135l8.483,1.073L209.363,125.104z M236.221,117.772c-0.369,4.604-4.017,8.503-10.622,8.254
		l-10.246-0.389l0.965-25.541l8.401,0.317l-0.277,7.332l1.554,0.061C233.038,108.071,236.612,112.584,236.221,117.772z
		 M245.8,126.79l-7.916-0.3l0.967-25.542l7.914,0.3L245.8,126.79z M311.619,119.953c-2.052,1.769-5.097,2.454-7.259,2.768
		c-3.608,0.522-7.307,0.419-10.376-2.133c-2.96-2.469-3.95-5.909-4.36-8.748c-0.585-4.039-0.035-7.704,2.188-10.676
		c2.139-2.864,5.043-4.169,8.218-4.628c5.628-0.815,9.508,0.884,12.052,5.229c1.31,2.266,2.285,5.611,2.414,7.853l-16.306,2.359
		c0.654,5.208,4.358,4.673,5.224,4.546c0.866-0.124,1.67-0.339,2.239-0.813c0.48-0.415,0.658-0.882,0.705-1.231l8.274-1.197
		C314.562,116.874,312.71,119.009,311.619,119.953z M336.443,116.211l-3.936-17.794l-5.03,1.113l1.218,5.503
		c0.494,2.229,0.949,5.415,0.684,7.366c-0.25,1.795-1.147,3.586-2.656,4.867c-1.472,1.22-3.375,1.841-4.846,2.167l-2.752,0.607
		l-1.585-7.165l0.854-0.188c2.514-0.557,2.754-2.402,2.791-3.355c0.007-0.648-0.062-1.63-0.451-3.383l-2.623-11.864l21.019-4.649
		l5.521,24.958L336.443,116.211z M360.26,109.938l-9.792,3.04l-7.582-24.406l8.027-2.496l2.177,7.008l1.486-0.461
		c6.728-2.091,11.598,0.976,12.954,5.999C368.716,103.087,366.57,107.977,360.26,109.938z M372,106.29l-7.583-24.408l7.563-2.351
		l7.584,24.41L372,106.29z M400.123,95.726l-6.479-4.347l-1.535,7.595l-9.275,3.76l4.015-15.573l-13.345-8.222l9.366-3.796
		l6.019,4.113l1.456-7.144l9.096-3.686l-3.647,15.058l13.788,8.407L400.123,95.726z M432.838,80.798
		c-6.534,3.441-12.851,0.73-16.543-6.277c-3.69-7.006-2.356-13.75,4.179-17.192c5.07-2.674,9.806-2.86,14.074,3.678l-7.308,3.849
		c-1.094-1.345-1.99-1.587-3.28-0.907c-1.504,0.792-1.96,2.844-0.014,6.541c2.174,4.128,4.18,4.389,5.427,3.732
		c1.504-0.793,1.363-2.313,0.584-4.207l7.437-3.919C440.654,73.221,438.426,77.854,432.838,80.798z"/>
	<path d="M273.927,118.59c2.182-0.152,3.983-2.228,3.721-5.96c-0.254-3.585-2.27-5.197-4.498-5.041
		c-2.229,0.157-3.996,2.036-3.742,5.622C269.67,116.945,271.746,118.746,273.927,118.59z"/>
</g>
</svg>
