<?xml version="1.0" encoding="utf-8"?>
<!-- Generator: Adobe Illustrator 16.0.4, SVG Export Plug-In . SVG Version: 6.00 Build 0)  -->
<!DOCTYPE svg PUBLIC "-//W3C//DTD SVG 1.1//EN" "http://www.w3.org/Graphics/SVG/1.1/DTD/svg11.dtd">
<svg version="1.1" id="Your_Icon" xmlns="http://www.w3.org/2000/svg" xmlns:xlink="http://www.w3.org/1999/xlink" x="0px" y="0px"
	 width="27.141px" height="40.156px" viewBox="1.844 0.578 27.141 40.156" enable-background="new 1.844 0.578 27.141 40.156"
	 xml:space="preserve">
<g>
	<path fill="#456FEE" d="M23.286,0.654H7.538c-3.107,0-5.626,2.519-5.626,5.626v28.748c0,3.106,2.519,5.626,5.626,5.626h15.747
		c3.107,0,5.627-2.52,5.627-5.626V6.28C28.912,3.173,26.393,0.654,23.286,0.654z M26.912,35.028c0,2.003-1.624,3.626-3.626,3.626
		H7.538c-2.002,0-3.626-1.623-3.626-3.626V6.28c0-2.003,1.624-3.626,3.626-3.626h15.747c2.003,0,3.627,1.623,3.627,3.626V35.028z"/>
	<path fill="#456FEE" d="M21.495,5.654H9.329c-1.335,0-2.417,1.082-2.417,2.417v21.165c0,1.336,1.082,2.418,2.417,2.418h12.165
		c1.336,0,2.418-1.082,2.418-2.417V8.071C23.912,6.736,22.83,5.654,21.495,5.654z M21.912,29.237c0,0.229-0.188,0.417-0.417,0.417
		H9.329c-0.23,0-0.417-0.188-0.417-0.417V8.071c0-0.23,0.187-0.417,0.417-0.417h12.165c0.23,0,0.418,0.187,0.418,0.417V29.237z"/>
	<circle fill="#456FEE" cx="15.736" cy="34.971" r="1.662"/>
</g>
</svg>
